<svg fill="none" height="31" viewBox="0 0 32 31" width="32" xmlns="http://www.w3.org/2000/svg" xmlns:xlink="http://www.w3.org/1999/xlink"><linearGradient id="a" gradientUnits="userSpaceOnUse" x1="0" x2="19.7144" y1="0" y2="29.6608"><stop offset="0" stop-color="#ffb300"/><stop offset="1" stop-color="#ff4900"/></linearGradient><path d="m10.3147 30.9442c1.6277 0 2.9471-1.3195 2.9471-2.9471s-1.3194-2.9471-2.9471-2.9471c-1.62758 0-2.94702 1.3195-2.94702 2.9471s1.31944 2.9471 2.94702 2.9471z" fill="#ff4d00"/><path d="m26.5232 30.9442c1.6277 0 2.9471-1.3195 2.9471-2.9471s-1.3194-2.9471-2.9471-2.9471c-1.6276 0-2.947 1.3195-2.947 2.9471s1.3194 2.9471 2.947 2.9471z" fill="#ff4d00"/><g clip-rule="evenodd" fill-rule="evenodd"><path d="m30.526 5.89412h-23.07883l-.83806-3.61296c-.1549-.66781-.50071-1.21496-1.03744-1.64144-.53673-.42648-1.14786-.63972-1.8334-.63972h-2.26474c-.813808 0-1.47353.659722-1.47353 1.47353 0 .8138.659722 1.47353 1.47353 1.47353h2.26474l.68359 2.94706h-.00127l3.79505 16.53848c.0768.3347.24951.609.51814.823.26862.2139.57464.3209.91805.3209h17.15477c.3375 0 .6393-.1037.9055-.3111.2662-.2073.4406-.4746.5233-.8019l3.7193-14.73521c.0556-.22027.06-.44155.0133-.66386-.0468-.22231-.14-.42307-.2796-.60229-.1396-.17921-.3114-.31869-.5156-.41842-.204-.09973-.4196-.1496-.6468-.1496z" fill="url(#a)"/><path d="m8.95667 10.7179c-.01383-.0569-.02422-.1145-.04163-.1726 0-.0582 0-.1166 0-.1752 0-.40687.14386-.75418.43159-1.04191.28772-.28772.63504-.43158 1.04197-.43158.3399 0 .6435.10504.9107.31513s.4409.48029.5212.81066l2.136 8.7946.0002.0005c.0138.0569.0242.1145.0311.1726.007.0582.0105.1166.0105.1752 0 .4069-.1439.7542-.4316 1.0419s-.635.4316-1.0419.4316c-.34 0-.6435-.105-.9108-.3151-.2672-.2101-.4409-.4803-.5211-.8106zm8.68383-.6589c-.0802-.33036-.254-.60056-.5212-.81065s-.5708-.31514-.9107-.31514c-.4069 0-.7542.14386-1.042.43159-.2877.28772-.4315.63504-.4315 1.0419 0 .0586.0034.117.0104.1752.007.0581.0174.1157.0312.1726l2.1362 8.7952c.0802.3303.2539.6005.5212.8106.2672.2101.5708.3151.9107.3151.4069 0 .7542-.1439 1.0419-.4316s.4316-.635.4316-1.0419c0-.0586-.0035-.117-.0104-.1752-.007-.0581-.0174-.1157-.0312-.1726l-.0001-.0005z" fill="#fff" fill-opacity=".6"/></g></svg>